<svg width="20" height="16" viewBox="0 0 20 16" fill="none" xmlns="http://www.w3.org/2000/svg">
<path d="M16.9308 1.42954C15.6561 0.834001 14.2892 0.395236 12.8599 0.143937C12.8339 0.139087 12.8079 0.151208 12.7945 0.175449C12.6187 0.493813 12.4239 0.909146 12.2876 1.23559C10.7503 1.00127 9.22099 1.00127 7.71527 1.23559C7.57887 0.901889 7.37707 0.493813 7.20048 0.175449C7.18707 0.152017 7.16107 0.139896 7.13504 0.143937C5.70659 0.394433 4.33963 0.833198 3.06411 1.42954C3.05307 1.43438 3.04361 1.44247 3.03732 1.45297C0.444493 5.39703 -0.265792 9.24415 0.0826501 13.0436C0.0842267 13.0622 0.0944749 13.0799 0.108665 13.0912C1.81934 14.3704 3.47642 15.1469 5.10273 15.6616C5.12876 15.6697 5.15634 15.66 5.1729 15.6382C5.55761 15.1033 5.90054 14.5393 6.19456 13.9461C6.21192 13.9114 6.19535 13.8702 6.15989 13.8565C5.61594 13.6464 5.098 13.3902 4.59977 13.0993C4.56037 13.0759 4.55721 13.0185 4.59347 12.991C4.69831 12.911 4.80318 12.8278 4.9033 12.7438C4.92141 12.7284 4.94665 12.7252 4.96794 12.7349C8.24107 14.2564 11.7846 14.2564 15.0191 12.7349C15.0404 12.7244 15.0657 12.7276 15.0846 12.743C15.1847 12.827 15.2895 12.911 15.3952 12.991C15.4314 13.0185 15.4291 13.0759 15.3897 13.0993C14.8914 13.3959 14.3735 13.6464 13.8288 13.8557C13.7933 13.8694 13.7775 13.9114 13.7949 13.9461C14.0952 14.5384 14.4381 15.1025 14.8157 15.6374C14.8315 15.66 14.8599 15.6697 14.8859 15.6616C16.5201 15.1469 18.1772 14.3704 19.8879 13.0912C19.9028 13.0799 19.9123 13.063 19.9139 13.0444C20.3309 8.65183 19.2154 4.83626 16.9568 1.45377C16.9513 1.44247 16.9419 1.43438 16.9308 1.42954ZM6.68335 10.7301C5.69792 10.7301 4.88594 9.80897 4.88594 8.6777C4.88594 7.54643 5.68217 6.62528 6.68335 6.62528C7.69239 6.62528 8.49651 7.55452 8.48073 8.6777C8.48073 9.80897 7.68451 10.7301 6.68335 10.7301ZM13.329 10.7301C12.3435 10.7301 11.5316 9.80897 11.5316 8.6777C11.5316 7.54643 12.3278 6.62528 13.329 6.62528C14.338 6.62528 15.1421 7.55452 15.1264 8.6777C15.1264 9.80897 14.338 10.7301 13.329 10.7301Z" fill="#F9FCFD"/>
</svg>
