<svg width="20" height="17" viewBox="0 0 20 17" fill="none" xmlns="http://www.w3.org/2000/svg">
<path d="M17.9442 4.19104C17.9569 4.3687 17.9569 4.5464 17.9569 4.72405C17.9569 10.1428 13.8326 16.3865 6.29444 16.3865C3.97209 16.3865 1.81473 15.7139 0 14.5464C0.329962 14.5845 0.64719 14.5972 0.989848 14.5972C2.90607 14.5972 4.67006 13.95 6.0787 12.8459C4.27666 12.8078 2.7665 11.6276 2.24618 10.0033C2.50001 10.0413 2.7538 10.0667 3.02032 10.0667C3.38833 10.0667 3.75638 10.0159 4.099 9.92712C2.22083 9.54638 0.812152 7.89664 0.812152 5.90425V5.85351C1.35782 6.15808 1.99239 6.34843 2.66493 6.37379C1.56087 5.63773 0.837542 4.38139 0.837542 2.96006C0.837542 2.19865 1.04055 1.50068 1.3959 0.891536C3.41369 3.37885 6.4467 5.00319 9.8477 5.18089C9.78426 4.87632 9.74617 4.55909 9.74617 4.24182C9.74617 1.98291 11.5736 0.142822 13.8452 0.142822C15.0254 0.142822 16.0914 0.637746 16.8401 1.43724C17.7665 1.25958 18.6548 0.916927 19.4416 0.447394C19.137 1.39919 18.4898 2.19869 17.6396 2.70627C18.4645 2.61748 19.264 2.389 20 2.07178C19.4417 2.88393 18.7437 3.60725 17.9442 4.19104Z" fill="#F9FCFD"/>
</svg>
