<svg width="20" height="21" viewBox="0 0 20 21" fill="none" xmlns="http://www.w3.org/2000/svg">
<path d="M10 0.8125C4.64844 0.8125 0.3125 5.14844 0.3125 10.5C0.3125 15.8516 4.64844 20.1875 10 20.1875C15.3516 20.1875 19.6875 15.8516 19.6875 10.5C19.6875 5.14844 15.3516 0.8125 10 0.8125ZM16.9922 7.0625H14.375C14.1016 5.65625 13.6719 4.40625 13.125 3.39062C14.8047 4.13281 16.1719 5.42188 16.9922 7.0625ZM10 2.6875C10.7031 2.6875 11.875 4.32812 12.4609 7.0625H7.5C8.08594 4.32812 9.25781 2.6875 10 2.6875ZM2.1875 10.5C2.1875 9.99219 2.22656 9.44531 2.34375 8.9375H5.35156C5.3125 9.48438 5.3125 9.99219 5.3125 10.5C5.3125 11.0469 5.3125 11.5547 5.35156 12.0625H2.34375C2.22656 11.5938 2.1875 11.0469 2.1875 10.5ZM2.96875 13.9375H5.58594C5.85938 15.3828 6.28906 16.6328 6.83594 17.6484C5.15625 16.9062 3.78906 15.5781 2.96875 13.9375ZM5.58594 7.0625H2.96875C3.78906 5.42188 5.15625 4.13281 6.83594 3.39062C6.28906 4.40625 5.85938 5.65625 5.58594 7.0625ZM10 18.3125C9.25781 18.3125 8.08594 16.7109 7.5 13.9375H12.4609C11.875 16.7109 10.7031 18.3125 10 18.3125ZM12.7344 12.0625H7.22656C7.1875 11.5938 7.1875 11.0469 7.1875 10.5C7.1875 9.95312 7.1875 9.44531 7.22656 8.9375H12.7344C12.7734 9.44531 12.8125 9.95312 12.8125 10.5C12.8125 11.0469 12.7734 11.5938 12.7344 12.0625ZM13.125 17.6484C13.6719 16.6328 14.1016 15.3828 14.375 13.9375H16.9922C16.1719 15.5781 14.8047 16.9062 13.125 17.6484ZM14.6094 12.0625C14.6484 11.5547 14.6875 11.0469 14.6875 10.5C14.6875 9.99219 14.6484 9.48438 14.6094 8.9375H17.6562C17.7344 9.44531 17.8125 9.99219 17.8125 10.5C17.8125 11.0469 17.7344 11.5938 17.6562 12.0625H14.6094Z" fill="#F9FCFD"/>
</svg>
